<svg width="101" height="32" viewBox="0 0 101 32" fill="none" xmlns="http://www.w3.org/2000/svg">
<path fill-rule="evenodd" clip-rule="evenodd" d="M100.163 7.46069V0H95.3479L95.3487 3.09163L100.163 7.46069ZM95.3526 32H100.163V13.5258L95.3493 9.15786L95.3526 32ZM0.00476441 32H4.81541V13.5258L0.00140976 9.15786L0.00476441 32ZM4.81541 7.46069V0H0L0.000849904 3.09163L4.81541 7.46069ZM13.8391 0V32H18.654L18.6503 4.49283L28.1635 4.49171C31.9894 4.49339 35.0902 7.59538 35.0902 11.4215C35.0902 15.2454 31.993 18.346 28.17 18.3513L19.8796 18.3502L34.9228 32H41.6067L31.165 22.5257C36.1792 21.3192 39.9051 16.8059 39.9051 11.4215C39.9051 5.11361 34.7917 0 28.4839 0H13.8391ZM47.6788 32H52.4895V13.5258L47.6755 9.15786L47.6788 32ZM52.4895 7.46069V0H47.6741L47.6743 3.09163L52.4895 7.46069ZM86.3141 32V0H81.4989L81.5028 27.5072L71.9897 27.5086C68.1638 27.5069 65.0627 24.4049 65.0627 20.5785C65.0627 16.7546 68.1599 13.654 71.9829 13.6487L80.2736 13.6498L75.3227 9.15757L71.6693 9.15701C65.3614 9.15701 60.2478 14.2706 60.2478 20.5785C60.2478 26.8867 65.3614 32 71.6693 32H86.3141Z" fill="white"/>
</svg>